<svg width="97" height="96" viewBox="0 0 97 96" fill="none" xmlns="http://www.w3.org/2000/svg">
<rect x="0.399902" width="96" height="96" rx="48" fill="url(#paint0_linear_955_4279)"/>
<path fill-rule="evenodd" clip-rule="evenodd" d="M13.3663 41.9198C13.2052 41.9198 13.1655 41.8389 13.2457 41.7189L14.0896 40.6336C14.1692 40.5129 14.3707 40.4327 14.5312 40.4327H28.8758C29.0369 40.4327 29.0767 40.5534 28.9965 40.674L28.3136 41.7189C28.2334 41.8389 28.0325 41.9595 27.9118 41.9595L13.3663 41.9198ZM7.29887 45.6158C7.13843 45.6158 7.09799 45.5362 7.17821 45.4149L8.02216 44.3303C8.10238 44.2096 8.30326 44.1294 8.46436 44.1294H26.7861C26.9466 44.1294 27.0274 44.2501 26.987 44.3707L26.6655 45.3347C26.6257 45.4958 26.4646 45.576 26.3041 45.576L7.29887 45.6158ZM17.0219 49.3125C16.8615 49.3125 16.8217 49.1918 16.9019 49.0712L17.4641 48.0668C17.545 47.9461 17.7055 47.8261 17.8666 47.8261H25.9017C26.0628 47.8261 26.143 47.9461 26.143 48.1072L26.0635 49.0712C26.0635 49.2323 25.9024 49.3529 25.7817 49.3529L17.0219 49.3125ZM58.7292 41.1965C56.1973 41.8395 54.4697 42.3215 51.9789 42.9639C51.3756 43.125 51.3358 43.1648 50.8134 42.5622C50.2108 41.8793 49.7686 41.4371 48.9253 41.0354C46.3934 39.7903 43.9424 40.1516 41.6525 41.6387C38.9204 43.4061 37.5143 46.0176 37.554 49.2721C37.5938 52.4868 39.8041 55.1387 42.9784 55.5809C45.7105 55.9422 48.0011 54.9776 49.809 52.929C50.1703 52.4868 50.4919 52.0048 50.8936 51.442H43.1389C42.2956 51.442 42.0947 50.9195 42.3758 50.2367C42.8982 48.991 43.8622 46.902 44.4244 45.8571C44.5457 45.6158 44.8268 45.214 45.4294 45.214H60.0545C59.9749 46.2993 59.9749 47.3839 59.8138 48.4692C59.3716 51.3617 58.287 54.0136 56.5189 56.3439C53.6257 60.1613 49.8494 62.5314 45.0674 63.1745C41.1301 63.6969 37.4738 62.9332 34.2598 60.5226C31.2863 58.2725 29.5991 55.2991 29.1569 51.6031C28.6345 47.2235 29.92 43.2855 32.5718 39.8301C35.4246 36.0936 39.2015 33.7228 43.8224 32.8789C47.5993 32.196 51.2151 32.6382 54.4697 34.8479C56.5991 36.254 58.1259 38.1826 59.1303 40.5129C59.3716 40.8749 59.2112 41.0758 58.7286 41.1958L58.7292 41.1965Z" fill="white"/>
<path d="M72.0286 63.4159C68.3723 63.335 65.037 62.2908 62.2246 59.8796C59.8539 57.8311 58.3675 55.219 57.8855 52.1249C57.1622 47.5849 58.4073 43.5667 61.14 39.9913C64.073 36.1335 67.6086 34.1247 72.3906 33.2807C76.4884 32.5581 80.3462 32.9598 83.8414 35.33C87.0156 37.4998 88.984 40.4328 89.5064 44.29C90.1893 49.7144 88.6227 54.1344 84.8855 57.9113C82.2337 60.6029 78.9792 62.2908 75.2427 63.0539C74.1581 63.2548 73.0728 63.2952 72.0286 63.4159ZM81.5913 47.1831C81.5515 46.6607 81.5515 46.259 81.4706 45.8572C80.748 41.8794 77.091 39.6293 73.2743 40.5137C69.5372 41.357 67.1266 43.7278 66.2429 47.5047C65.5196 50.6385 67.0464 53.8128 69.9389 55.0983C72.1493 56.0629 74.3589 55.9423 76.4884 54.8577C79.6627 53.2102 81.3904 50.6385 81.5913 47.1831Z" fill="white"/>
<defs>
<linearGradient id="paint0_linear_955_4279" x1="11" y1="4" x2="75.5" y2="96" gradientUnits="userSpaceOnUse">
<stop stop-color="#00ACD7"/>
<stop offset="1" stop-color="#00A8D3"/>
</linearGradient>
</defs>
</svg>
