<svg width="97" height="96" viewBox="0 0 97 96" fill="none" xmlns="http://www.w3.org/2000/svg">
<rect x="0.600098" width="96" height="96" rx="48" fill="url(#paint0_linear_955_4263)"/>
<path d="M79.082 26.9588L51.5214 10.9556C49.7832 9.96563 47.5201 9.96563 45.7682 10.9556L17.9132 26.9588C16.1195 27.9906 14.8501 29.93 14.8501 32.0044V63.9681C14.8501 66.0425 16.1526 67.9825 17.9463 69.02L25.3057 73.2C28.8232 74.9325 30.0663 74.9325 31.667 74.9325C36.8751 74.9325 39.8501 71.7831 39.8501 66.29V34.7338C39.8501 34.2881 39.6182 33.625 39.1807 33.625H35.6663C35.2213 33.625 34.2251 34.2881 34.2251 34.7331V66.2894C34.2251 68.7244 32.0226 71.1475 27.9063 69.0894L20.302 64.7063C20.037 64.5625 19.8501 64.2731 19.8501 63.9681V32.0044C19.8501 31.7031 20.197 31.4006 20.4638 31.2463L48.2288 15.2706C48.4882 15.1238 48.8695 15.1238 49.1282 15.2706L76.5545 31.2425C76.817 31.4006 76.7245 31.6938 76.7245 32.0044V63.9681C76.7245 64.2731 76.8388 64.57 76.5795 64.7169L49.0257 80.7019C48.7895 80.8438 48.4963 80.8438 48.2376 80.7019L41.1707 76.4838C40.9576 76.36 40.7045 76.3156 40.5001 76.43C38.5338 77.5444 38.1713 77.6925 36.327 78.3319C35.8732 78.49 35.2038 78.7644 36.5832 79.5375L45.832 85.0088C46.715 85.5188 47.7167 85.7873 48.7364 85.7875C49.7626 85.7875 50.7676 85.5213 51.6532 85.0088L79.0813 69.02C80.8751 67.975 81.7251 66.0425 81.7251 63.9681V32.0044C81.7251 29.93 80.8751 27.9956 79.082 26.9588ZM57.2938 58.9031C49.9651 58.9031 48.3507 56.8813 47.8126 53.2369C47.7501 52.8444 47.417 52.375 47.0176 52.375H43.4357C42.9926 52.375 42.6363 52.9125 42.6363 53.3538C42.6363 58.02 45.1732 63.6738 57.2945 63.6738C66.0688 63.6738 71.0995 60.2644 71.0995 54.2306C71.0995 48.2481 67.0576 46.6781 58.5482 45.5519C49.947 44.415 49.0732 43.8406 49.0732 41.8256C49.0732 40.1644 49.8132 37.9488 56.182 37.9488C61.8726 37.9488 63.9701 39.17 64.8332 43.0056C64.907 43.3663 65.2363 43.625 65.6082 43.625H69.2045C69.4257 43.625 69.637 43.5356 69.792 43.3775C69.942 43.2075 70.0213 42.9944 70.0013 42.7656C69.4445 36.1606 65.0563 33.0825 56.1813 33.0825C48.287 33.0825 43.5776 36.4163 43.5776 42.0044C43.5776 48.0656 48.2632 49.7406 55.8413 50.49C64.907 51.3788 65.612 52.7038 65.612 54.4869C65.612 57.5838 63.1257 58.9031 57.2938 58.9031Z" fill="white"/>
<defs>
<linearGradient id="paint0_linear_955_4263" x1="1" y1="4" x2="89" y2="102.5" gradientUnits="userSpaceOnUse">
<stop stop-color="#83CD29"/>
<stop offset="1" stop-color="#74BE1A"/>
</linearGradient>
</defs>
</svg>
