<svg width="97" height="96" viewBox="0 0 97 96" fill="none" xmlns="http://www.w3.org/2000/svg">
<rect x="0.800293" width="96" height="96" rx="48" fill="url(#paint0_linear_955_4267)"/>
<path d="M16.0873 61.1305C15.7574 61.139 15.4292 61.0818 15.1216 60.9622C14.8141 60.8426 14.5334 60.663 14.2959 60.4339C14.0605 60.2128 13.8729 59.9459 13.7447 59.6496C13.6165 59.3532 13.5503 59.0337 13.5503 58.7108C13.5503 58.388 13.6165 58.0685 13.7447 57.7721C13.8729 57.4758 14.0605 57.2089 14.2959 56.9878C14.5313 56.7542 14.8111 56.57 15.1187 56.4461C15.4264 56.3222 15.7557 56.2611 16.0873 56.2663C16.421 56.2594 16.7527 56.3197 17.0626 56.4437C17.3725 56.5677 17.6543 56.7527 17.8912 56.9878C18.1299 57.2069 18.3205 57.4732 18.4508 57.7698C18.5812 58.0664 18.6485 58.3869 18.6485 58.7108C18.6485 59.0348 18.5812 59.3553 18.4508 59.6519C18.3205 59.9485 18.1299 60.2148 17.8912 60.4339C17.6523 60.6645 17.3695 60.845 17.0597 60.9646C16.7499 61.0843 16.4193 61.1407 16.0873 61.1305ZM44.2156 60.7324H39.6374L27.5949 41.7232C27.293 41.252 27.0388 40.7519 26.836 40.2303H26.7241C26.856 41.4073 26.9058 42.592 26.8733 43.7759V60.7324H22.8177V34.8684H27.6944L39.401 53.4298C39.8987 54.2011 40.2097 54.6739 40.359 55.0222H40.4212C40.2804 53.8667 40.2222 52.7026 40.247 51.5388V34.8684H44.2778L44.2156 60.7324ZM63.9215 60.7324H49.7641V34.8684H63.3617V38.5135H53.9441V45.841H62.6525V49.4612H53.9441V57.1122H63.8966L63.9215 60.7324ZM84.0504 38.5135H76.7975V60.7324H72.605V38.5135H65.377V34.8684H84.038L84.0504 38.5135Z" fill="white"/>
<defs>
<linearGradient id="paint0_linear_955_4267" x1="13" y1="3" x2="73.5" y2="96" gradientUnits="userSpaceOnUse">
<stop stop-color="#6B3FA0"/>
<stop offset="1" stop-color="#552D85"/>
</linearGradient>
</defs>
</svg>
