<svg width="96" height="96" viewBox="0 0 96 96" fill="none" xmlns="http://www.w3.org/2000/svg">
<rect width="96" height="96" rx="48" fill="url(#paint0_linear_955_4271)"/>
<path d="M35.5103 52.7392C34.3648 53.8108 33.0928 54.2532 31.6919 54.7089C30.2911 55.1653 28.5084 55.0711 26.3407 55.0711H21.4279L20.0663 62.9278H14.3301L19.4487 36.2149H30.4796C33.7983 36.2149 36.219 37.1695 37.7408 38.9113C39.2627 40.6531 39.7199 43.1257 39.1134 46.2471C38.8628 47.5333 38.4409 48.7291 37.8453 49.7945C37.2282 50.8937 36.44 51.8877 35.5103 52.7392ZM52.2538 55.0711L54.5173 43.7416C54.775 42.4154 54.6807 41.4302 54.2337 40.9486C53.7859 40.4662 52.8336 40.1432 51.3778 40.1432H46.8287L43.8974 55.0711H38.2059L43.3246 29.1438H49.016L47.6553 36.2149H52.7252C55.9158 36.2149 58.1157 36.8552 59.3264 37.9677C60.5372 39.0802 60.9002 40.6044 60.4162 43.0966L58.0348 55.0711H52.2538ZM83.8843 46.2888C83.6344 47.5749 83.2117 48.7503 82.617 49.8149C82.0214 50.8811 81.2436 51.8561 80.2827 52.7392C79.1372 53.8108 77.8644 54.2532 76.4644 54.7089C75.0643 55.1653 73.28 55.0711 71.1124 55.0711H66.1995L64.8387 62.9278H59.1025L64.2204 36.2149H75.2521C78.5708 36.2149 80.9914 37.1695 82.5125 38.9113C84.0328 40.6531 84.4908 43.1681 83.8843 46.2888ZM73.0781 40.1432H69.1489L67.0064 51.1427H70.4964C72.8078 51.1427 74.5316 50.9148 75.663 50.0427C76.7959 49.1722 77.5588 47.8209 77.9556 45.7836C78.3358 43.8265 78.163 42.2999 77.437 41.4954C76.7103 40.6909 75.2576 40.1432 73.0781 40.1432ZM28.3064 40.1432H24.3765L22.234 51.1427H25.7231C28.0354 51.1427 29.7584 50.9148 30.8905 50.0427C32.0227 49.1722 32.7864 47.8209 33.1823 45.7836C33.5626 43.8265 33.3898 42.2999 32.6638 41.4954C31.9378 40.6909 30.4859 40.1432 28.3064 40.1432Z" fill="white"/>
<defs>
<linearGradient id="paint0_linear_955_4271" x1="9.5" y1="4" x2="78" y2="100" gradientUnits="userSpaceOnUse">
<stop stop-color="#6181B6"/>
<stop offset="1" stop-color="#5979AE"/>
</linearGradient>
</defs>
</svg>
