<svg width="97" height="96" viewBox="0 0 97 96" fill="none" xmlns="http://www.w3.org/2000/svg">
<rect x="0.200195" width="96" height="96" rx="48" fill="url(#paint0_linear_1326_244)"/>
<path d="M47.8463 17.9192C45.3922 17.9308 43.0498 18.1395 40.9875 18.5045C34.9134 19.5775 33.8114 21.8234 33.8114 25.966V31.4362H48.1642V33.2596H28.4243C24.2532 33.2596 20.6006 35.7665 19.4579 40.5375C18.1396 46.0041 18.0815 49.4161 19.4579 55.1246C20.478 59.3741 22.9146 62.4013 27.0863 62.4013H32.0217V55.8436C32.0217 51.1058 36.1201 46.9272 40.9881 46.9272H55.3247C59.3156 46.9272 62.5008 43.6408 62.5008 39.6336V25.9666C62.5008 22.0763 59.2191 19.1543 55.3247 18.5051C52.8579 18.0947 50.2998 17.9081 47.8463 17.9192ZM40.0842 22.3187C41.5664 22.3187 42.7778 23.5492 42.7778 25.0628C42.7778 26.57 41.567 27.7888 40.0842 27.7888C38.5962 27.7888 37.3913 26.57 37.3913 25.0628C37.3907 23.5492 38.5962 22.3187 40.0842 22.3187Z" fill="#386F9F"/>
<path d="M64.2907 33.2594V39.6334C64.2907 44.574 60.101 48.7329 55.3243 48.7329H40.9877C37.0607 48.7329 33.8115 52.0943 33.8115 56.0271V69.6952C33.8115 73.5844 37.1933 75.8728 40.9877 76.9882C45.5307 78.3233 49.8878 78.5651 55.3243 76.9882C58.9373 75.9414 62.5004 73.8361 62.5004 69.6952V64.2245H48.1644V62.4005H69.6777C73.8488 62.4005 75.4042 59.4913 76.8551 55.1238C78.3535 50.6278 78.289 46.3039 76.8551 40.5367C75.8239 36.3836 73.8552 33.2588 69.6777 33.2588H64.2907V33.2594ZM56.227 67.8712C57.7156 67.8712 58.9205 69.0901 58.9205 70.5985C58.9205 72.1109 57.715 73.3414 56.227 73.3414C54.7448 73.3414 53.534 72.1109 53.534 70.5985C53.534 69.0901 54.7448 67.8712 56.227 67.8712Z" fill="#FFCF46"/>
<defs>
<linearGradient id="paint0_linear_1326_244" x1="-1.23118e-07" y1="1.5" x2="80.5" y2="103.5" gradientUnits="userSpaceOnUse">
<stop stop-color="#242429"/>
<stop offset="1" stop-color="#18181D"/>
</linearGradient>
</defs>
</svg>
